<svg version="1.0" id="katman_1" xmlns="http://www.w3.org/2000/svg" xmlns:xlink="http://www.w3.org/1999/xlink" x="0"
  y="0" viewBox="0 0 841.89 595.28" style="enable-background:new 0 0 841.89 595.28" xml:space="preserve">
  <style></style>
  <defs>
    <path id="SVGID_1_" d="M49.17 206.94H792.8v180.99H49.17z" />
  </defs>
  <clipPath id="SVGID_00000101786511580706380980000009625675968072492730_">
    <use xlink:href="#SVGID_1_" style="overflow:visible" />
  </clipPath>
  <g style="clip-path:url(#SVGID_00000101786511580706380980000009625675968072492730_)">
    <linearGradient id="SVGID_00000164496039387684312900000002715006002778772393_" gradientUnits="userSpaceOnUse"
      x1="49.185" y1="299.266" x2="792.817" y2="299.266" gradientTransform="matrix(1 0 0 -1 -.015 596.702)">
      <stop offset="0" style="stop-color:#f0060b" />
      <stop offset="0" style="stop-color:#f0070c" />
      <stop offset=".526" style="stop-color:#cc26d5" />
      <stop offset="1" style="stop-color:#7702ff" />
    </linearGradient>
    <path style="fill:url(#SVGID_00000164496039387684312900000002715006002778772393_)"
      d="M343.5 352.05h23.36l-42.57-121.01h-27.08l-42.57 121.01H278l9.98-29.8h45.48l10.04 29.8zm-49.57-47.46 16.36-48.7h.93l16.36 48.7h-33.65zm96.04-5.7v53.16H368.6v-90.71h20.45v15.43h1.05c2.11-5.08 5.45-9.11 10.04-12.08 4.59-2.97 10.29-4.46 17.04-4.46 6.26 0 11.71 1.36 16.42 4.03 4.65 2.66 8.3 6.57 10.84 11.65 2.6 5.08 3.84 11.22 3.78 18.46v57.68h-21.38v-54.46c0-6.07-1.55-10.78-4.71-14.25-3.16-3.41-7.44-5.14-12.95-5.14-3.72 0-7.06.8-9.98 2.48-2.91 1.61-5.14 3.97-6.82 7.06-1.54 3.04-2.41 6.75-2.41 11.15zm105.4 89.04c-7.68 0-14.25-1.05-19.77-3.1-5.51-2.04-9.91-4.83-13.26-8.3-3.35-3.47-5.7-7.31-6.94-11.52l19.27-4.65c.87 1.8 2.11 3.53 3.78 5.27 1.67 1.73 3.9 3.22 6.69 4.4 2.79 1.18 6.38 1.73 10.66 1.73 6.07 0 11.09-1.49 15.06-4.4 3.97-2.91 5.95-7.74 5.95-14.44v-17.16h-1.05c-1.12 2.23-2.73 4.46-4.83 6.82-2.11 2.35-4.89 4.27-8.3 5.82-3.47 1.55-7.75 2.35-12.95 2.35-6.94 0-13.26-1.67-18.96-4.96-5.64-3.28-10.16-8.24-13.45-14.75-3.35-6.57-5.02-14.75-5.02-24.66s1.67-18.4 5.02-25.28c3.35-6.88 7.81-12.08 13.51-15.68 5.7-3.59 12.02-5.33 18.96-5.33 5.33 0 9.73.87 13.14 2.66 3.47 1.8 6.2 3.97 8.24 6.44 2.04 2.48 3.59 4.83 4.65 7.06h1.18v-14.99h21.07v92.2c0 7.75-1.86 14.19-5.58 19.27-3.72 5.08-8.74 8.86-15.18 11.4-6.46 2.56-13.77 3.8-21.89 3.8zm.19-53.97c4.52 0 8.37-1.12 11.59-3.28 3.16-2.23 5.64-5.39 7.25-9.48 1.67-4.15 2.48-9.11 2.48-14.87s-.81-10.72-2.48-14.99c-1.61-4.28-4.03-7.62-7.19-10.04-3.16-2.36-7.06-3.59-11.65-3.59s-8.74 1.24-11.96 3.72c-3.16 2.48-5.58 5.89-7.19 10.16-1.61 4.34-2.42 9.23-2.42 14.68 0 5.45.8 10.41 2.48 14.56 1.61 4.15 4.03 7.37 7.25 9.67 3.17 2.28 7.13 3.46 11.84 3.46zm107.2-20.07v-52.54h21.38v90.71h-20.76v-16.11h-.93c-2.04 5.08-5.39 9.23-10.1 12.45-4.65 3.22-10.41 4.83-17.23 4.83-5.95 0-11.22-1.3-15.74-3.97-4.52-2.66-8.12-6.51-10.66-11.65-2.54-5.08-3.84-11.28-3.84-18.53v-57.75h21.44v54.46c0 5.76 1.55 10.35 4.71 13.69 3.16 3.41 7.31 5.08 12.39 5.08 3.16 0 6.2-.74 9.17-2.29 2.97-1.55 5.39-3.84 7.31-6.88 1.93-3.08 2.86-6.92 2.86-11.5zm49.76-82.84v121.01h-21.38V231.05h21.38zm33.95 122.8c-5.76 0-10.91-1.05-15.49-3.1-4.59-2.04-8.24-5.14-10.84-9.17-2.66-4.03-3.97-9.05-3.97-14.99 0-5.14.93-9.36 2.85-12.7 1.92-3.35 4.46-6.01 7.75-8.05 3.28-1.98 6.94-3.53 11.09-4.59 4.09-1.05 8.36-1.8 12.76-2.29 5.33-.56 9.6-1.05 12.95-1.49 3.28-.43 5.7-1.18 7.25-2.11 1.49-.99 2.29-2.48 2.29-4.52v-.37c0-4.46-1.3-7.87-3.97-10.35-2.66-2.42-6.44-3.66-11.4-3.66-5.27 0-9.36 1.12-12.45 3.41-3.04 2.29-5.08 4.96-6.2 8.12l-19.95-2.85c1.55-5.51 4.15-10.1 7.81-13.88 3.59-3.72 8.06-6.5 13.26-8.36 5.27-1.86 11.03-2.79 17.35-2.79 4.4 0 8.74.5 13.07 1.55s8.3 2.73 11.9 5.08c3.59 2.35 6.44 5.51 8.67 9.54 2.17 4.03 3.28 9.05 3.28 15.06v60.72h-20.57V339.6h-.68c-1.3 2.54-3.1 4.89-5.45 7.06s-5.27 3.97-8.8 5.27c-3.65 1.3-7.74 1.92-12.51 1.92zm5.58-15.67c4.28 0 7.99-.87 11.15-2.54 3.16-1.73 5.58-3.97 7.31-6.82 1.74-2.85 2.54-5.95 2.54-9.29v-10.72c-.68.56-1.8 1.05-3.41 1.55s-3.35.87-5.33 1.24-3.9.68-5.82.93c-1.92.25-3.59.5-5.02.68-3.16.43-6.07 1.11-8.55 2.11-2.54.99-4.52 2.36-5.95 4.09-1.49 1.73-2.17 4.03-2.17 6.75 0 3.97 1.43 6.94 4.34 8.92 2.79 2.1 6.45 3.1 10.91 3.1zM741 352.05v-90.71h20.76v15.12h.93c1.67-5.27 4.52-9.29 8.55-12.14 4.03-2.85 8.68-4.27 13.88-4.27 1.18 0 2.54.06 3.97.12 1.49.12 2.73.25 3.72.43v19.64c-.93-.31-2.35-.62-4.28-.87-1.87-.24-3.75-.37-5.64-.37-3.9 0-7.37.87-10.47 2.54-3.1 1.67-5.51 3.97-7.31 6.94-1.8 2.97-2.66 6.38-2.66 10.22v53.35H741zM217.34 236.62l-6.07 95.36-58.06-125.04 64.13 29.68zm-40.21 123.3-43.87 25.03-43.87-25.03 8.92-21.62h69.9l8.92 21.62zm-43.87-105.51 22.99 55.89h-45.98c0-.01 22.99-55.89 22.99-55.89zm-78.08 77.57-6.01-95.36 64.13-29.68-58.12 125.04z" />
    <radialGradient id="SVGID_00000131333169796541432830000015873219391082281117_" cx="2.007" cy="596.395" r=".757"
      gradientTransform="scale(-205.794 205.794) rotate(61.878 497.155 295.776)" gradientUnits="userSpaceOnUse">
      <stop offset="0" style="stop-color:#ff41f8" />
      <stop offset=".707" style="stop-color:#ff41f8;stop-opacity:.5" />
      <stop offset="1" style="stop-color:#ff41f8;stop-opacity:0" />
    </radialGradient>
    <path style="fill:url(#SVGID_00000131333169796541432830000015873219391082281117_)"
      d="M343.5 352.05h23.36l-42.57-121.01h-27.08l-42.57 121.01H278l9.98-29.8h45.48l10.04 29.8zm-49.57-47.46 16.36-48.7h.93l16.36 48.7h-33.65zm96.04-5.7v53.16H368.6v-90.71h20.45v15.43h1.05c2.11-5.08 5.45-9.11 10.04-12.08 4.59-2.97 10.29-4.46 17.04-4.46 6.26 0 11.71 1.36 16.42 4.03 4.65 2.66 8.3 6.57 10.84 11.65 2.6 5.08 3.84 11.22 3.78 18.46v57.68h-21.38v-54.46c0-6.07-1.55-10.78-4.71-14.25-3.16-3.41-7.44-5.14-12.95-5.14-3.72 0-7.06.8-9.98 2.48-2.91 1.61-5.14 3.97-6.82 7.06-1.54 3.04-2.41 6.75-2.41 11.15zm105.4 89.04c-7.68 0-14.25-1.05-19.77-3.1-5.51-2.04-9.91-4.83-13.26-8.3-3.35-3.47-5.7-7.31-6.94-11.52l19.27-4.65c.87 1.8 2.11 3.53 3.78 5.27 1.67 1.73 3.9 3.22 6.69 4.4 2.79 1.18 6.38 1.73 10.66 1.73 6.07 0 11.09-1.49 15.06-4.4 3.97-2.91 5.95-7.74 5.95-14.44v-17.16h-1.05c-1.12 2.23-2.73 4.46-4.83 6.82-2.11 2.35-4.89 4.27-8.3 5.82-3.47 1.55-7.75 2.35-12.95 2.35-6.94 0-13.26-1.67-18.96-4.96-5.64-3.28-10.16-8.24-13.45-14.75-3.35-6.57-5.02-14.75-5.02-24.66s1.67-18.4 5.02-25.28c3.35-6.88 7.81-12.08 13.51-15.68 5.7-3.59 12.02-5.33 18.96-5.33 5.33 0 9.73.87 13.14 2.66 3.47 1.8 6.2 3.97 8.24 6.44 2.04 2.48 3.59 4.83 4.65 7.06h1.18v-14.99h21.07v92.2c0 7.75-1.86 14.19-5.58 19.27-3.72 5.08-8.74 8.86-15.18 11.4-6.46 2.56-13.77 3.8-21.89 3.8zm.19-53.97c4.52 0 8.37-1.12 11.59-3.28 3.16-2.23 5.64-5.39 7.25-9.48 1.67-4.15 2.48-9.11 2.48-14.87s-.81-10.72-2.48-14.99c-1.61-4.28-4.03-7.62-7.19-10.04-3.16-2.36-7.06-3.59-11.65-3.59s-8.74 1.24-11.96 3.72c-3.16 2.48-5.58 5.89-7.19 10.16-1.61 4.34-2.42 9.23-2.42 14.68 0 5.45.8 10.41 2.48 14.56 1.61 4.15 4.03 7.37 7.25 9.67 3.17 2.28 7.13 3.46 11.84 3.46zm107.2-20.07v-52.54h21.38v90.71h-20.76v-16.11h-.93c-2.04 5.08-5.39 9.23-10.1 12.45-4.65 3.22-10.41 4.83-17.23 4.83-5.95 0-11.22-1.3-15.74-3.97-4.52-2.66-8.12-6.51-10.66-11.65-2.54-5.08-3.84-11.28-3.84-18.53v-57.75h21.44v54.46c0 5.76 1.55 10.35 4.71 13.69 3.16 3.41 7.31 5.08 12.39 5.08 3.16 0 6.2-.74 9.17-2.29 2.97-1.55 5.39-3.84 7.31-6.88 1.93-3.08 2.86-6.92 2.86-11.5zm49.76-82.84v121.01h-21.38V231.05h21.38zm33.95 122.8c-5.76 0-10.91-1.05-15.49-3.1-4.59-2.04-8.24-5.14-10.84-9.17-2.66-4.03-3.97-9.05-3.97-14.99 0-5.14.93-9.36 2.85-12.7 1.92-3.35 4.46-6.01 7.75-8.05 3.28-1.98 6.94-3.53 11.09-4.59 4.09-1.05 8.36-1.8 12.76-2.29 5.33-.56 9.6-1.05 12.95-1.49 3.28-.43 5.7-1.18 7.25-2.11 1.49-.99 2.29-2.48 2.29-4.52v-.37c0-4.46-1.3-7.87-3.97-10.35-2.66-2.42-6.44-3.66-11.4-3.66-5.27 0-9.36 1.12-12.45 3.41-3.04 2.29-5.08 4.96-6.2 8.12l-19.95-2.85c1.55-5.51 4.15-10.1 7.81-13.88 3.59-3.72 8.06-6.5 13.26-8.36 5.27-1.86 11.03-2.79 17.35-2.79 4.4 0 8.74.5 13.07 1.55s8.3 2.73 11.9 5.08c3.59 2.35 6.44 5.51 8.67 9.54 2.17 4.03 3.28 9.05 3.28 15.06v60.72h-20.57V339.6h-.68c-1.3 2.54-3.1 4.89-5.45 7.06s-5.27 3.97-8.8 5.27c-3.65 1.3-7.74 1.92-12.51 1.92zm5.58-15.67c4.28 0 7.99-.87 11.15-2.54 3.16-1.73 5.58-3.97 7.31-6.82 1.74-2.85 2.54-5.95 2.54-9.29v-10.72c-.68.56-1.8 1.05-3.41 1.55s-3.35.87-5.33 1.24-3.9.68-5.82.93c-1.92.25-3.59.5-5.02.68-3.16.43-6.07 1.11-8.55 2.11-2.54.99-4.52 2.36-5.95 4.09-1.49 1.73-2.17 4.03-2.17 6.75 0 3.97 1.43 6.94 4.34 8.92 2.79 2.1 6.45 3.1 10.91 3.1zM741 352.05v-90.71h20.76v15.12h.93c1.67-5.27 4.52-9.29 8.55-12.14 4.03-2.85 8.68-4.27 13.88-4.27 1.18 0 2.54.06 3.97.12 1.49.12 2.73.25 3.72.43v19.64c-.93-.31-2.35-.62-4.28-.87-1.87-.24-3.75-.37-5.64-.37-3.9 0-7.37.87-10.47 2.54-3.1 1.67-5.51 3.97-7.31 6.94-1.8 2.97-2.66 6.38-2.66 10.22v53.35H741zM217.34 236.62l-6.07 95.36-58.06-125.04 64.13 29.68zm-40.21 123.3-43.87 25.03-43.87-25.03 8.92-21.62h69.9l8.92 21.62zm-43.87-105.51 22.99 55.89h-45.98c0-.01 22.99-55.89 22.99-55.89zm-78.08 77.57-6.01-95.36 64.13-29.68-58.12 125.04z" />
  </g>
</svg>
